<svg width="40" height="136" viewBox="0 0 40 136" fill="none" xmlns="http://www.w3.org/2000/svg">
<rect x="0.5" y="0.5" width="39" height="135" rx="4.5" stroke="#9747FF" stroke-dasharray="10 5"/>
<path d="M26 23L20 17L14 23" stroke="white" stroke-width="2"/>
<path d="M26 49L20 55L14 49" stroke="white" stroke-width="2"/>
<path d="M28 81L28.7071 80.2929L29.4142 81L28.7071 81.7071L28 81ZM13 82C12.4477 82 12 81.5523 12 81C12 80.4477 12.4477 80 13 80V82ZM22.7071 74.2929L28.7071 80.2929L27.2929 81.7071L21.2929 75.7071L22.7071 74.2929ZM28.7071 81.7071L22.7071 87.7071L21.2929 86.2929L27.2929 80.2929L28.7071 81.7071ZM28 82H13V80H28V82Z" fill="#121212"/>
<path d="M13 116L12.2929 115.293L11.5858 116L12.2929 116.707L13 116ZM28 117C28.5523 117 29 116.552 29 116C29 115.448 28.5523 115 28 115V117ZM18.2929 109.293L12.2929 115.293L13.7071 116.707L19.7071 110.707L18.2929 109.293ZM12.2929 116.707L18.2929 122.707L19.7071 121.293L13.7071 115.293L12.2929 116.707ZM13 117H28V115H13V117Z" fill="#121212"/>
</svg>
